<svg width="12" height="12" viewBox="0 0 12 12" fill="none" xmlns="http://www.w3.org/2000/svg">
<g clip-path="url(#clip0_1_1907)">
<path d="M6 0C2.68397 0 0 2.6835 0 6C0 9.31603 2.6835 12 6 12C9.31603 12 12 9.3165 12 6C12 2.68397 9.3165 0 6 0ZM6 11.0625C3.20205 11.0625 0.9375 8.7982 0.9375 6C0.9375 3.20205 3.2018 0.9375 6 0.9375C8.79795 0.9375 11.0625 3.2018 11.0625 6C11.0625 8.79795 8.7982 11.0625 6 11.0625ZM7.39059 8.76562C7.39059 9.02454 7.18076 9.23438 6.92184 9.23438H5.07816C4.81924 9.23438 4.60941 9.02454 4.60941 8.76562C4.60941 8.50671 4.81924 8.29688 5.07816 8.29688H5.53125V5.54691H5.07816C4.81924 5.54691 4.60941 5.33707 4.60941 5.07816C4.60941 4.81924 4.81924 4.60941 5.07816 4.60941H6C6.25891 4.60941 6.46875 4.81924 6.46875 5.07816V8.29688H6.92184C7.18076 8.29688 7.39059 8.50671 7.39059 8.76562ZM5.41406 2.89847C5.41406 2.57482 5.67635 2.31253 6 2.31253C6.32365 2.31253 6.58594 2.57482 6.58594 2.89847C6.58594 3.22202 6.32365 3.48441 6 3.48441C5.67635 3.48441 5.41406 3.22202 5.41406 2.89847Z" fill="#999999"/>
</g>
<defs>
<clipPath id="clip0_1_1907">
<rect width="12" height="12" fill="white"/>
</clipPath>
</defs>
</svg>
