<svg width="20" height="20" viewBox="0 0 20 20" fill="none" xmlns="http://www.w3.org/2000/svg">
<g clip-path="url(#clip0_1_2468)">
<path fill-rule="evenodd" clip-rule="evenodd" d="M14.8338 7.94928C15.4287 7.94933 16.009 7.76453 16.4944 7.42042C16.9798 7.07631 17.3463 6.5899 17.5432 6.02845C17.7401 5.46699 17.7577 4.85822 17.5936 4.28632C17.4295 3.71442 17.0917 3.20764 16.6271 2.83604C16.1624 2.46445 15.5937 2.24641 14.9997 2.21206C14.4057 2.17772 13.8157 2.32877 13.3113 2.64433C12.8069 2.95988 12.413 3.42436 12.1841 3.97354C11.9551 4.52271 11.9024 5.12945 12.0333 5.70986L7.94042 8.07303C7.56207 7.65504 7.06902 7.35771 6.52278 7.21811C5.97655 7.07852 5.4013 7.10284 4.8688 7.28805C4.33629 7.47325 3.8701 7.81114 3.52838 8.25957C3.18666 8.708 2.98454 9.24712 2.94722 9.80967C2.9099 10.3722 3.03903 10.9333 3.31852 11.423C3.59801 11.9126 4.01548 12.3091 4.51885 12.563C5.02222 12.817 5.58922 12.9171 6.14911 12.8508C6.709 12.7846 7.237 12.555 7.66725 12.1907L11.9738 14.6776C11.9154 15.364 12.1057 16.0485 12.5101 16.6062C12.9144 17.1638 13.5058 17.5576 14.1763 17.7155C14.8468 17.8734 15.5517 17.785 16.1624 17.4663C16.7732 17.1477 17.249 16.6201 17.503 15.9798C17.7571 15.3395 17.7725 14.6292 17.5463 13.9785C17.3202 13.3279 16.8677 12.7802 16.2714 12.4354C15.675 12.0906 14.9746 11.9718 14.2978 12.1005C13.6211 12.2293 13.0133 12.597 12.5852 13.1367L8.56559 10.8157C8.68621 10.4078 8.7147 9.97825 8.649 9.55803L12.8363 7.13986C13.3714 7.65994 14.0885 7.9504 14.8347 7.94928H14.8338ZM14.8338 6.30844C15.16 6.30844 15.4729 6.17884 15.7036 5.94814C15.9343 5.71744 16.0639 5.40454 16.0639 5.07828C16.0639 4.75202 15.9343 4.43912 15.7036 4.20842C15.4729 3.97772 15.16 3.84811 14.8338 3.84811C14.5074 3.84811 14.1944 3.97777 13.9636 4.20855C13.7328 4.43934 13.6031 4.75235 13.6031 5.07874C13.6031 5.40512 13.7328 5.71813 13.9636 5.94892C14.1944 6.17971 14.5074 6.30844 14.8338 6.30844ZM5.81192 11.2309C6.1383 11.2309 6.45132 11.1013 6.6821 10.8705C6.91289 10.6397 7.04254 10.3267 7.04254 10.0003C7.04254 9.67394 6.91289 9.36092 6.6821 9.13014C6.45132 8.89935 6.1383 8.76969 5.81192 8.76969C5.48566 8.76969 5.17276 8.8993 4.94206 9.13C4.71136 9.3607 4.58175 9.6736 4.58175 9.99986C4.58175 10.3261 4.71136 10.639 4.94206 10.8697C5.17276 11.1004 5.48566 11.23 5.81192 11.23V11.2309ZM16.0639 14.9205C16.0639 15.2468 15.9343 15.5597 15.7036 15.7904C15.4729 16.0211 15.16 16.1507 14.8338 16.1507C14.5075 16.1507 14.1946 16.0211 13.9639 15.7904C13.7332 15.5597 13.6036 15.2468 13.6036 14.9205C13.6036 14.5943 13.7332 14.2814 13.9639 14.0507C14.1946 13.82 14.5075 13.6904 14.8338 13.6904C15.16 13.6904 15.4729 13.82 15.7036 14.0507C15.9343 14.2814 16.0639 14.5943 16.0639 14.9205Z" fill="black"/>
</g>
<defs>
<clipPath id="clip0_1_2468">
<rect width="18.3333" height="18.3333" fill="white" transform="translate(0.833496 0.833252)"/>
</clipPath>
</defs>
</svg>
