<svg width="14" height="14" viewBox="0 0 14 14" fill="none" xmlns="http://www.w3.org/2000/svg">
<g clip-path="url(#clip0_1_1902)">
<path fill-rule="evenodd" clip-rule="evenodd" d="M4.1825 2.96708C4.12286 2.90742 4.08936 2.82651 4.08936 2.74215C4.08936 2.65779 4.12286 2.57688 4.1825 2.51722L6.43211 0.267622C6.53678 0.16251 6.66891 0.088974 6.8134 0.055419C6.86575 0.0195637 6.92766 0.000257492 6.99111 2.86102e-06C7.05455 -0.000252724 7.11662 0.0185547 7.16925 0.0539865C7.31618 0.0868263 7.45067 0.160945 7.55691 0.267622L9.80651 2.51722C9.86446 2.57723 9.89653 2.65759 9.8958 2.74101C9.89508 2.82442 9.86162 2.90422 9.80263 2.96321C9.74365 3.02219 9.66385 3.05565 9.58044 3.05638C9.49702 3.0571 9.41666 3.02503 9.35665 2.96708L7.3105 0.920933L7.3105 13.1531L9.39642 11.0674C9.42567 11.0366 9.46079 11.012 9.49971 10.995C9.53863 10.978 9.58055 10.969 9.62301 10.9684C9.66547 10.9679 9.70761 10.9759 9.74695 10.9919C9.78628 11.0079 9.82201 11.0316 9.85203 11.0616C9.88205 11.0916 9.90576 11.1274 9.92175 11.1667C9.93774 11.2061 9.9457 11.2482 9.94515 11.2907C9.9446 11.3331 9.93555 11.375 9.91854 11.414C9.90154 11.4529 9.87691 11.488 9.84612 11.5172L7.59684 13.7668C7.51785 13.846 7.42301 13.9077 7.31853 13.9476C7.21405 13.9876 7.1023 14.005 6.99061 13.9988C6.97279 13.9988 6.95514 13.9972 6.9378 13.9941C6.76135 13.9729 6.59719 13.8929 6.47172 13.767L4.22243 11.5172C4.16448 11.4572 4.13241 11.3769 4.13314 11.2934C4.13386 11.21 4.16732 11.1302 4.22631 11.0712C4.28529 11.0123 4.36509 10.9788 4.4485 10.9781C4.53192 10.9773 4.61229 11.0094 4.67229 11.0674L6.67421 13.0695L6.67421 0.925227L4.63236 2.96708C4.5727 3.02672 4.49179 3.06023 4.40743 3.06023C4.32307 3.06023 4.24216 3.02672 4.1825 2.96708Z" fill="#0E0E0E"/>
</g>
<defs>
<clipPath id="clip0_1_1902">
<rect width="14" height="14" fill="white" transform="matrix(0 -1 1 0 0 14)"/>
</clipPath>
</defs>
</svg>
