<svg width="14" height="14" viewBox="0 0 14 14" fill="none" xmlns="http://www.w3.org/2000/svg">
<path fill-rule="evenodd" clip-rule="evenodd" d="M11.0329 4.18226C11.0926 4.12262 11.1735 4.08911 11.2578 4.08911C11.3422 4.08911 11.4231 4.12262 11.4828 4.18226L13.7324 6.43186C13.8375 6.53653 13.911 6.66867 13.9446 6.81316C13.9804 6.8655 13.9997 6.92741 14 6.99086C14.0003 7.05431 13.9814 7.11637 13.946 7.169C13.9132 7.31593 13.8391 7.45043 13.7324 7.55666L11.4828 9.80627C11.4228 9.86422 11.3424 9.89629 11.259 9.89556C11.1756 9.89484 11.0958 9.86138 11.0368 9.80239C10.9778 9.7434 10.9443 9.66361 10.9436 9.58019C10.9429 9.49678 10.975 9.41641 11.0329 9.35641L13.0791 7.31026H0.846876L2.93263 9.39618C2.96341 9.42543 2.98803 9.46055 3.00502 9.49947C3.02202 9.53838 3.03105 9.58031 3.03158 9.62277C3.03212 9.66523 3.02415 9.70737 3.00814 9.7467C2.99214 9.78604 2.96842 9.82177 2.93839 9.85179C2.90835 9.88181 2.87261 9.90552 2.83328 9.92151C2.79394 9.9375 2.7518 9.94546 2.70933 9.9449C2.66687 9.94435 2.62495 9.93531 2.58604 9.9183C2.54713 9.90129 2.51202 9.87667 2.48278 9.84588L0.233174 7.59659C0.153959 7.51761 0.092343 7.42276 0.0523718 7.31828C0.0124005 7.2138 -0.00502236 7.10205 0.00124684 6.99037C0.00124684 6.97255 0.00283746 6.95489 0.00585983 6.93755C0.0271406 6.76111 0.107148 6.59695 0.233015 6.47147L2.48278 4.22219C2.54278 4.16423 2.62314 4.13217 2.70656 4.13289C2.78998 4.13362 2.86977 4.16708 2.92876 4.22606C2.98774 4.28505 3.0212 4.36484 3.02193 4.44826C3.02265 4.53168 2.99059 4.61204 2.93263 4.67204L0.930548 6.67397H13.0748L11.0329 4.63212C10.9733 4.57246 10.9398 4.49155 10.9398 4.40719C10.9398 4.32283 10.9733 4.24192 11.0329 4.18226Z" fill="#0E0E0E"/>
</svg>
