<svg width="20" height="20" viewBox="0 0 20 20" fill="none" xmlns="http://www.w3.org/2000/svg">
<path fill-rule="evenodd" clip-rule="evenodd" d="M1.0415 10.0001C1.0415 5.05253 5.05229 1.04175 9.99984 1.04175C14.9474 1.04175 18.9582 5.05253 18.9582 10.0001C18.9582 14.9477 14.9474 18.9584 9.99984 18.9584C5.05229 18.9584 1.0415 14.9477 1.0415 10.0001ZM9.99984 2.29175C5.74265 2.29175 2.2915 5.74289 2.2915 10.0001C2.2915 14.2572 5.74265 17.7084 9.99984 17.7084C14.257 17.7084 17.7082 14.2572 17.7082 10.0001C17.7082 5.74289 14.257 2.29175 9.99984 2.29175ZM9.76459 5.20841H10.0882L10.1187 5.21141C10.4699 5.24592 10.7968 5.447 10.9733 5.77181L10.9778 5.78014L11.8617 7.46709L13.8488 7.74021L13.8498 7.74035C14.2408 7.79362 14.5888 8.05302 14.7309 8.44041L14.733 8.44608L14.735 8.45183C14.8744 8.85625 14.7493 9.29158 14.4398 9.56766L14.4386 9.56875L12.9694 10.8862L13.3166 12.7067C13.3968 13.1292 13.2064 13.5408 12.8643 13.7685C12.532 13.9949 12.1022 14.0187 11.7483 13.8407L9.9495 12.9518L8.17187 13.8342C7.9676 13.9314 7.73795 13.9652 7.51351 13.9311L7.50534 13.9298L7.4972 13.9284C6.94172 13.8288 6.51716 13.3074 6.62074 12.7055L6.62267 12.6942L6.9712 10.8694L5.54745 9.562C5.24223 9.28141 5.12431 8.84425 5.27045 8.44283C5.40875 8.05869 5.75004 7.799 6.13631 7.7414L6.14338 7.74034L8.15344 7.46411L9.02617 5.7689L9.03017 5.76163C9.08275 5.66572 9.1525 5.57404 9.24009 5.49406L9.26425 5.47202L9.29717 5.44778C9.34984 5.40064 9.40609 5.36161 9.46359 5.32981L9.51034 5.30401L9.59509 5.27454L9.76459 5.20841ZM10.0003 6.60775L9.21842 8.12632C9.04725 8.45075 8.72509 8.6565 8.3745 8.6955L6.70224 8.92533L7.9009 10.0261C8.15814 10.266 8.28505 10.6202 8.22327 10.9763L8.22147 10.9867L7.92032 12.5635L9.46725 11.7957C9.56684 11.7449 9.67134 11.7137 9.774 11.6992L9.8175 11.6931H9.98267L9.99117 11.6933C10.1509 11.6977 10.312 11.7357 10.4613 11.8104L12.02 12.5807L11.7166 10.9895C11.6542 10.6332 11.7822 10.2776 12.0425 10.0385L12.0478 10.0336L13.2848 8.92441L11.6047 8.6935C11.2678 8.64458 10.9591 8.44066 10.7944 8.12345L10.7933 8.12139L10.0003 6.60775Z" fill="#0E0E0E"/>
</svg>
