<svg width="16" height="15" viewBox="0 0 16 15" fill="none" xmlns="http://www.w3.org/2000/svg">
<g clip-path="url(#clip0_1_351)">
<path fill-rule="evenodd" clip-rule="evenodd" d="M8.09186 0.513361C7.62363 0.646485 7.18083 1.04316 7.03358 1.46143L6.99324 1.57599L6.78117 1.61007C6.40971 1.66976 6.15669 1.79682 5.89086 2.05717L5.75253 2.19265L5.63668 2.12722C5.41284 2.00079 5.24893 1.96081 4.95391 1.96081C4.7338 1.96078 4.64084 1.97364 4.50062 2.02353C4.14397 2.15038 3.81606 2.4429 3.65766 2.77553C3.5741 2.95104 3.56954 2.95538 3.45219 2.97092C3.10045 3.01748 2.77978 3.18748 2.53739 3.45583C2.29179 3.72775 2.1333 4.13178 2.1333 4.48598C2.1333 4.8462 2.28778 5.23424 2.5463 5.52338L2.71416 5.71115L2.68344 5.83744C2.64015 6.01554 2.66791 6.42735 2.73682 6.62847C2.88648 7.06547 3.20722 7.39437 3.64566 7.56051C3.7397 7.59612 3.8053 7.63678 3.8032 7.65811C3.80116 7.67821 3.76865 7.80317 3.73089 7.93583C3.63773 8.26324 3.61133 8.44621 3.59144 8.90301L3.5745 9.29215H4.17336H4.77224L4.82881 9.43551C5.11328 10.1563 5.57472 10.8821 6.11985 11.4661L6.35209 11.7148L6.22652 11.7637C5.67719 11.9772 5.16177 12.401 4.83738 12.9059C4.70708 13.1087 4.5052 13.5297 4.50583 13.5972C4.50596 13.61 4.67452 13.6805 4.88038 13.7539C5.173 13.8582 5.25736 13.8791 5.26683 13.8495C5.27347 13.8287 5.33289 13.7022 5.39886 13.5684C5.62925 13.1012 6.08902 12.6914 6.56839 12.526C6.683 12.4866 6.78062 12.4585 6.78537 12.4639C6.79011 12.4692 6.67092 12.9097 6.52048 13.443C6.37007 13.9761 6.24677 14.4215 6.24651 14.4328C6.24622 14.4441 7.25463 14.4533 8.4874 14.4533C9.72017 14.4533 10.7286 14.4441 10.7283 14.4328C10.7281 14.4215 10.6051 13.9761 10.455 13.443C10.305 12.9097 10.1858 12.4692 10.1902 12.4639C10.2093 12.4405 10.6282 12.6065 10.7828 12.6986C10.8814 12.7574 11.0591 12.9094 11.2053 13.06C11.4154 13.2766 11.4776 13.3615 11.5771 13.5673C11.6428 13.7033 11.702 13.8313 11.7087 13.8517C11.7178 13.8803 11.8069 13.8579 12.0947 13.7546C12.3004 13.6808 12.4688 13.6082 12.4687 13.5931C12.4683 13.521 12.2747 13.1198 12.1369 12.905C11.8111 12.3978 11.2248 11.9203 10.7201 11.7508L10.619 11.7169L10.8542 11.4671C11.1388 11.1646 11.3632 10.8743 11.6041 10.4967C11.7764 10.2266 12.0664 9.65703 12.1584 9.4082L12.2012 9.29215H12.8008H13.4003L13.3843 8.88764C13.3674 8.4632 13.3235 8.18558 13.2192 7.84533C13.1847 7.73293 13.165 7.63303 13.1754 7.62332C13.1858 7.61362 13.2418 7.59041 13.2998 7.57175C13.7634 7.42279 14.1524 6.993 14.2751 6.4942C14.3212 6.30612 14.3273 5.96634 14.287 5.81617C14.2594 5.71335 14.2603 5.71155 14.4278 5.52417C14.7718 5.1394 14.9038 4.66727 14.8038 4.17888C14.696 3.65165 14.3025 3.1967 13.8227 3.04433C13.7236 3.0129 13.5892 2.98001 13.5239 2.97131C13.4072 2.95568 13.4037 2.95227 13.3046 2.75281C13.0497 2.24003 12.4758 1.90993 11.9178 1.95516C11.708 1.97217 11.467 2.04544 11.3147 2.13842L11.2247 2.19342L11.057 2.03104C10.8047 1.78647 10.3713 1.59398 10.0684 1.59183C10.0116 1.59144 9.98806 1.56253 9.91418 1.40228C9.79105 1.13532 9.61361 0.920164 9.38204 0.757055C9.09558 0.555278 8.91069 0.494982 8.54014 0.482393C8.32444 0.475101 8.19502 0.484032 8.09186 0.513361ZM8.80384 1.37604C8.94773 1.44172 9.10624 1.59521 9.17715 1.73748C9.22983 1.84325 9.27712 2.18108 9.27802 2.45838C9.27827 2.53725 9.28429 2.60175 9.29138 2.60175C9.2985 2.60175 9.43108 2.56488 9.58604 2.51983C9.95065 2.41379 10.1117 2.41306 10.3201 2.51642C10.5923 2.65144 10.734 2.86956 10.7509 3.17974C10.7652 3.44072 10.7031 3.61508 10.5336 3.79024C10.417 3.91072 10.3581 3.94488 10.0893 4.04786C9.91894 4.11317 9.77951 4.17134 9.77951 4.17716C9.77951 4.18295 9.85181 4.29904 9.94015 4.4351C10.1468 4.7533 10.1818 4.84322 10.1834 5.05944C10.1867 5.50017 9.85514 5.85047 9.43404 5.8511C9.11418 5.85159 8.9513 5.75158 8.6837 5.39044C8.583 5.25451 8.49466 5.14328 8.4874 5.14328C8.48015 5.14328 8.39182 5.25451 8.29111 5.39044C8.02351 5.75158 7.86063 5.85159 7.54077 5.8511C7.11968 5.85047 6.78808 5.50017 6.7914 5.05944C6.79301 4.84322 6.82805 4.7533 7.03467 4.4351C7.123 4.29904 7.19531 4.18295 7.19531 4.17716C7.19531 4.17134 7.05589 4.11317 6.88546 4.04786C6.61674 3.94488 6.55779 3.91072 6.44122 3.79024C6.14559 3.48475 6.14242 2.9834 6.43415 2.66739C6.65127 2.43217 6.93076 2.38757 7.37786 2.51682C7.53942 2.56354 7.67715 2.60175 7.68396 2.60175C7.69076 2.60175 7.69653 2.53725 7.6968 2.45838C7.69764 2.20038 7.74445 1.84371 7.78967 1.75075C7.81404 1.70062 7.87716 1.6125 7.92995 1.5549C8.15955 1.30442 8.49605 1.23554 8.80384 1.37604ZM5.16551 2.82365C5.22002 2.84055 5.29575 2.88048 5.33386 2.91241C5.39975 2.96756 5.4036 2.98504 5.41276 3.27078C5.42748 3.73035 5.54907 4.03076 5.85564 4.36498L6.04365 4.56998L6.01298 4.70756C5.99611 4.78323 5.98231 4.94609 5.98231 5.06944C5.98231 5.44315 6.0846 5.75413 6.30811 6.05992C6.37548 6.15211 6.43059 6.25096 6.43059 6.27958C6.43059 6.30823 6.39201 6.39826 6.34488 6.47967C6.22612 6.68478 6.06819 6.78303 5.83119 6.79927C5.56549 6.81749 5.42091 6.73235 5.17314 6.41175C5.0689 6.27691 4.97276 6.16282 4.95944 6.15823C4.94612 6.15361 4.88387 6.22035 4.82106 6.30648C4.62624 6.57368 4.52366 6.67683 4.38697 6.74289C4.01009 6.92503 3.56856 6.69294 3.48112 6.26672C3.43724 6.05296 3.4818 5.90017 3.67628 5.59763C3.77082 5.45057 3.84216 5.32023 3.83484 5.30798C3.82753 5.29571 3.69861 5.24033 3.54836 5.1849C3.23103 5.06781 3.11279 4.97774 3.01812 4.78104C2.86017 4.4528 2.9881 4.04786 3.3026 3.88038C3.48123 3.78527 3.64564 3.78562 3.95804 3.8818C4.11051 3.92875 4.24863 3.96714 4.26498 3.96714C4.28507 3.96714 4.29467 3.8761 4.29467 3.68538C4.29467 3.51655 4.31023 3.3496 4.33346 3.26893C4.43669 2.9106 4.80703 2.71239 5.16551 2.82365ZM12.2997 2.85792C12.5737 2.99007 12.6802 3.22158 12.6802 3.68538C12.6802 3.8761 12.6898 3.96714 12.7098 3.96714C12.7262 3.96714 12.8643 3.92875 13.0168 3.8818C13.3299 3.78538 13.493 3.78527 13.6747 3.88128C13.9985 4.05228 14.1208 4.49738 13.9346 4.82643C13.839 4.99541 13.7338 5.06977 13.43 5.18339C13.2859 5.23733 13.158 5.29148 13.146 5.3038C13.1339 5.31608 13.202 5.4474 13.2972 5.59558C13.4146 5.77827 13.4779 5.9068 13.4937 5.99474C13.5922 6.54081 13.0671 6.97445 12.5878 6.74289C12.4512 6.67683 12.3486 6.57368 12.1538 6.30648C12.091 6.22035 12.0287 6.15361 12.0153 6.15823C12.0021 6.16282 11.9059 6.27691 11.8017 6.41175C11.5539 6.73235 11.4094 6.81749 11.1436 6.79927C10.9066 6.78303 10.7487 6.68478 10.6299 6.47967C10.5828 6.39826 10.5446 6.30656 10.5452 6.27584C10.5457 6.24515 10.6051 6.14015 10.6772 6.04253C10.869 5.78277 10.9702 5.49459 10.9865 5.16155C10.9945 4.99727 10.9867 4.8323 10.9662 4.73167L10.9327 4.56834L11.1199 4.36419C11.4259 4.03062 11.5475 3.72983 11.5619 3.27078C11.5711 2.97966 11.5735 2.96863 11.6444 2.91237C11.8151 2.77707 12.0854 2.75461 12.2997 2.85792ZM8.19718 3.46211L7.9211 3.749L8.20425 4.04223L8.4874 4.33547L8.77056 4.04223L9.05372 3.749L8.77762 3.46211C8.62576 3.30432 8.49518 3.17521 8.4874 3.17521C8.47963 3.17521 8.34904 3.30432 8.19718 3.46211ZM4.66384 4.49964L4.38788 4.7864L4.67702 5.08675L4.9662 5.38714L5.23693 5.10772C5.38583 4.95404 5.50766 4.81558 5.50766 4.80002C5.50766 4.77238 4.97908 4.21291 4.95298 4.21291C4.94573 4.21291 4.81559 4.34193 4.66384 4.49964ZM11.7369 4.49328C11.5886 4.64748 11.4672 4.78596 11.4672 4.80098C11.4672 4.816 11.589 4.95404 11.7379 5.10772L12.0086 5.38714L12.2978 5.08675L12.587 4.7864L12.311 4.49964C12.1592 4.34193 12.0287 4.21291 12.0209 4.21291C12.0131 4.21291 11.8854 4.33907 11.7369 4.49328ZM7.6304 6.68857C7.76093 6.68063 7.89628 6.66528 7.93119 6.65441C7.99153 6.63565 7.99377 6.63923 7.97708 6.72773C7.94539 6.89546 7.70017 7.36247 7.53718 7.56545C7.22167 7.95841 6.74863 8.26811 6.27237 8.3935C6.07394 8.44577 5.95552 8.45402 5.23956 8.4656L4.43087 8.47864L4.45591 8.35972C4.53476 7.98545 4.79002 7.44745 4.91166 7.39912C4.93294 7.39066 5.03124 7.42635 5.13013 7.47845C5.58334 7.71726 6.09565 7.6968 6.55242 7.42167C6.74123 7.30797 6.98398 7.03876 7.0855 6.83057L7.17347 6.65015L7.28327 6.67659C7.34366 6.69111 7.49987 6.69649 7.6304 6.68857ZM9.34441 6.68857C9.47493 6.69649 9.63115 6.69111 9.69154 6.67659L9.80134 6.65015L9.88931 6.83057C9.99083 7.03876 10.2336 7.30797 10.4224 7.42167C10.8803 7.69751 11.3914 7.71731 11.8475 7.47692C12.0163 7.38803 12.0348 7.38377 12.09 7.42122C12.2065 7.50021 12.4332 7.98304 12.5063 8.30743L12.5449 8.47864L11.7358 8.4656C11.0193 8.45402 10.9009 8.44577 10.7025 8.3935C10.2262 8.26811 9.75313 7.95841 9.43762 7.56545C9.27463 7.36247 9.02943 6.89546 8.99773 6.72773C8.98103 6.63923 8.98329 6.63565 9.04362 6.65441C9.07853 6.66528 9.21388 6.68063 9.34441 6.68857ZM8.61891 7.82064C8.7613 8.05279 9.05997 8.39121 9.28898 8.57994C9.79414 8.99619 10.4251 9.24818 11.052 9.28409L11.3358 9.30037L11.2015 9.5625C10.8206 10.3058 10.3412 10.8967 9.69686 11.4174L9.52193 11.5587H8.48767H7.45338L7.23866 11.3845C6.79504 11.0246 6.43328 10.6278 6.1177 10.1551C5.96517 9.92659 5.66588 9.378 5.66588 9.32691C5.66588 9.30242 5.71542 9.29215 5.83382 9.29215C6.21462 9.29215 6.71604 9.15833 7.13283 8.94553C7.59047 8.71183 8.09458 8.24913 8.35556 7.82324C8.42082 7.71671 8.48015 7.62916 8.4874 7.62867C8.49466 7.62818 8.55382 7.71458 8.61891 7.82064ZM9.4934 13.0129L9.66387 13.6204L9.07563 13.6278C8.7521 13.6319 8.22287 13.6319 7.89952 13.6278L7.31162 13.6204L7.48199 13.0129L7.65234 12.4052H8.48764H9.32294L9.4934 13.0129Z" fill="#8A8A8A"/>
</g>
<defs>
<clipPath id="clip0_1_351">
<rect width="16" height="14.9333" fill="white"/>
</clipPath>
</defs>
</svg>
