<svg width="16" height="16" viewBox="0 0 16 16" fill="none" xmlns="http://www.w3.org/2000/svg">
<g clip-path="url(#clip0_2019_40)">
<path d="M15.8263 7.65434L14.857 6.75521C14.7909 6.69393 14.7402 6.61791 14.709 6.53334L13.9478 4.46631C13.8389 4.175 13.6439 3.92378 13.3886 3.74615C13.1334 3.56851 12.83 3.47289 12.5191 3.47203H11.3657V3.14846C11.3657 3.00932 11.3104 2.87587 11.212 2.77748C11.1137 2.67908 10.9802 2.62381 10.8411 2.62381H3.87084C3.76712 2.62259 3.66703 2.66186 3.59182 2.73328C3.51661 2.8047 3.47222 2.90264 3.46809 3.00628C3.46712 3.05808 3.47649 3.10956 3.49564 3.1577C3.5148 3.20584 3.54335 3.24969 3.57965 3.28667C3.61594 3.32365 3.65924 3.35302 3.70702 3.37308C3.75479 3.39313 3.80608 3.40346 3.8579 3.40346H10.586V6.78618C10.586 6.92533 10.6413 7.05878 10.7397 7.15717C10.8381 7.25556 10.9715 7.31084 11.1107 7.31084H14.2792L15.2202 8.15771V11.3168H14.3671C14.2821 10.9451 14.0735 10.6132 13.7753 10.3755C13.4772 10.1377 13.1071 10.0083 12.7258 10.0083C12.3445 10.0083 11.9744 10.1377 11.6763 10.3755C11.3781 10.6132 11.1695 10.9451 11.0845 11.3168H8.4593C8.37435 10.9451 8.16571 10.6132 7.86755 10.3755C7.56938 10.1377 7.19935 10.0083 6.81802 10.0083C6.4367 10.0083 6.06666 10.1377 5.7685 10.3755C5.47033 10.6132 5.2617 10.9451 5.17674 11.3168H3.8708C3.76708 11.3156 3.66697 11.3549 3.59177 11.4263C3.51656 11.4978 3.47219 11.5957 3.46809 11.6994C3.46712 11.7512 3.47649 11.8026 3.49564 11.8508C3.5148 11.8989 3.54336 11.9428 3.57965 11.9797C3.61594 12.0167 3.65924 12.0461 3.70702 12.0661C3.75479 12.0862 3.80609 12.0965 3.8579 12.0965H5.1833C5.2736 12.4618 5.48365 12.7863 5.77993 13.0183C6.0762 13.2502 6.44164 13.3763 6.81791 13.3763C7.19419 13.3763 7.55962 13.2502 7.8559 13.0183C8.15218 12.7863 8.36223 12.4618 8.45252 12.0965H11.0911C11.1814 12.4618 11.3915 12.7863 11.6878 13.0183C11.984 13.2502 12.3495 13.3763 12.7258 13.3763C13.102 13.3763 13.4675 13.2502 13.7637 13.0183C14.06 12.7863 14.2701 12.4618 14.3604 12.0965H15.4753C15.6144 12.0965 15.7479 12.0413 15.8463 11.9429C15.9446 11.8445 15.9999 11.711 15.9999 11.5719V8.04428C15.9999 7.97075 15.9844 7.89805 15.9545 7.83088C15.9246 7.76371 15.8809 7.70357 15.8263 7.65434ZM11.3657 6.53128V4.25165H12.5191C12.6709 4.25207 12.819 4.29875 12.9436 4.38549C13.0683 4.47222 13.1635 4.59488 13.2166 4.73712L13.8812 6.53128H11.3657ZM6.81793 12.5965C6.63908 12.5965 6.46424 12.5435 6.31553 12.4441C6.16683 12.3447 6.05092 12.2035 5.98248 12.0383C5.91404 11.873 5.89613 11.6912 5.93103 11.5158C5.96592 11.3404 6.05205 11.1792 6.17852 11.0528C6.30499 10.9263 6.46612 10.8402 6.64153 10.8053C6.81695 10.7704 6.99877 10.7883 7.164 10.8568C7.32924 10.9252 7.47047 11.0411 7.56983 11.1898C7.66919 11.3386 7.72222 11.5134 7.72221 11.6922C7.72194 11.932 7.62658 12.1618 7.45705 12.3314C7.28752 12.5009 7.05767 12.5962 6.81793 12.5965ZM12.7258 12.5965C12.5469 12.5965 12.3721 12.5435 12.2234 12.4441C12.0747 12.3447 11.9587 12.2035 11.8903 12.0383C11.8219 11.873 11.8039 11.6912 11.8388 11.5158C11.8737 11.3404 11.9599 11.1793 12.0863 11.0528C12.2128 10.9263 12.3739 10.8402 12.5493 10.8053C12.7247 10.7704 12.9066 10.7883 13.0718 10.8568C13.237 10.9252 13.3783 11.0411 13.4776 11.1898C13.577 11.3386 13.63 11.5134 13.63 11.6922C13.6298 11.932 13.5344 12.1618 13.3649 12.3313C13.1954 12.5009 12.9655 12.5962 12.7258 12.5965Z" fill="#8A8A8A"/>
<path d="M2.19317 5.58444H6.61423C6.71763 5.58444 6.8168 5.54336 6.88991 5.47025C6.96303 5.39713 7.00411 5.29796 7.00411 5.19456C7.00411 5.09116 6.96303 4.99199 6.88991 4.91888C6.8168 4.84576 6.71763 4.80469 6.61423 4.80469H2.19317C2.08977 4.80469 1.9906 4.84576 1.91749 4.91888C1.84437 4.99199 1.80329 5.09116 1.80329 5.19456C1.80329 5.29796 1.84437 5.39713 1.91749 5.47025C1.9906 5.54336 2.08977 5.58444 2.19317 5.58444ZM7.00411 7.36022C7.00411 7.25682 6.96303 7.15765 6.88991 7.08454C6.8168 7.01142 6.71763 6.97034 6.61423 6.97034H0.389825C0.338335 6.96988 0.287263 6.97963 0.239558 6.99901C0.191854 7.0184 0.148462 7.04704 0.111889 7.08329C0.075315 7.11954 0.0462841 7.16267 0.0264723 7.2102C0.00666039 7.25773 -0.00354004 7.30871 -0.00354004 7.3602C-0.00354004 7.4117 0.00666039 7.46268 0.0264723 7.51021C0.0462841 7.55774 0.075315 7.60087 0.111889 7.63712C0.148462 7.67337 0.191854 7.70201 0.239558 7.72139C0.287263 7.74078 0.338335 7.75052 0.389825 7.75006H6.61423C6.71763 7.75006 6.81679 7.70899 6.8899 7.63588C6.96302 7.56277 7.0041 7.46361 7.00411 7.36022ZM4.53551 9.52587C4.53551 9.47468 4.52543 9.42399 4.50584 9.37669C4.48625 9.32939 4.45753 9.28641 4.42133 9.25021C4.38513 9.21401 4.34215 9.1853 4.29486 9.16571C4.24756 9.14611 4.19686 9.13603 4.14567 9.13603H1.43595C1.33316 9.13695 1.23489 9.17843 1.16253 9.25144C1.09016 9.32446 1.04957 9.42309 1.04957 9.52589C1.04957 9.62869 1.09016 9.72732 1.16253 9.80034C1.23489 9.87335 1.33316 9.91483 1.43595 9.91575H4.14567C4.24906 9.91574 4.34822 9.87466 4.42133 9.80155C4.49444 9.72843 4.53551 9.62927 4.53551 9.52587Z" fill="#8A8A8A"/>
</g>
<defs>
<clipPath id="clip0_2019_40">
<rect width="16" height="16" fill="white"/>
</clipPath>
</defs>
</svg>
