<svg width="20" height="20" viewBox="0 0 20 20" fill="none" xmlns="http://www.w3.org/2000/svg">
<path fill-rule="evenodd" clip-rule="evenodd" d="M10.091 1.38879C8.41741 1.38879 7.0607 2.63245 7.0607 4.16657H13.1213C13.1213 2.63245 11.7646 1.38879 10.091 1.38879ZM10.091 0.138794C7.6643 0.138794 5.69706 1.94209 5.69706 4.16657H4.37486C3.41474 4.16657 2.6201 4.85088 2.56021 5.72927L1.72688 17.9515C1.66146 18.911 2.49276 19.7221 3.54152 19.7221H16.6405C17.6892 19.7221 18.5205 18.911 18.4551 17.9515L17.6218 5.72927C17.5619 4.85088 16.7672 4.16657 15.8071 4.16657H14.485C14.485 1.94209 12.5177 0.138794 10.091 0.138794ZM15.8071 5.41657H4.37486C4.13483 5.41657 3.93616 5.58765 3.92119 5.80725L3.08786 18.0295C3.0715 18.2694 3.27933 18.4721 3.54152 18.4721H16.6405C16.9027 18.4721 17.1105 18.2694 17.0941 18.0295L16.2608 5.80725C16.2459 5.58765 16.0471 5.41657 15.8071 5.41657ZM7.0607 7.56935C7.0607 7.22417 6.75544 6.94435 6.37888 6.94435C6.00233 6.94435 5.69706 7.22417 5.69706 7.56935C5.69706 9.79379 7.6643 11.5971 10.091 11.5971C12.5177 11.5971 14.485 9.79379 14.485 7.56935C14.485 7.22417 14.1797 6.94435 13.8031 6.94435C13.4266 6.94435 13.1213 7.22417 13.1213 7.56935C13.1213 9.10346 11.7646 10.3471 10.091 10.3471C8.41741 10.3471 7.0607 9.10346 7.0607 7.56935Z" fill="white"/>
</svg>
