<svg width="16" height="16" viewBox="0 0 16 16" fill="none" xmlns="http://www.w3.org/2000/svg">
<path fill-rule="evenodd" clip-rule="evenodd" d="M4.88823 5.13842C4.88823 4.38686 5.49748 3.77761 6.24904 3.77761C6.98616 3.77761 7.5864 4.36368 7.60918 5.09528C7.60762 5.10945 7.60681 5.12384 7.60681 5.13842C7.60681 5.153 7.60762 5.16739 7.60918 5.18156C7.5864 5.91316 6.98616 6.49923 6.24904 6.49923C5.49748 6.49923 4.88823 5.88998 4.88823 5.13842ZM6.24904 3C7.29728 3 8.16934 3.75423 8.35223 4.74962H14.6083C14.823 4.74962 14.9971 4.92369 14.9971 5.13842C14.9971 5.35315 14.823 5.52722 14.6083 5.52722H8.35223C8.16934 6.52261 7.29728 7.27684 6.24904 7.27684C5.2008 7.27684 4.32871 6.52261 4.14588 5.52722H1.38881C1.17407 5.52722 1 5.35315 1 5.13842C1 4.92369 1.17407 4.74962 1.38881 4.74962H4.14588C4.32871 3.75423 5.2008 3 6.24904 3ZM8.38746 11.7481C8.38746 10.9965 8.99672 10.3873 9.74827 10.3873C10.4963 10.3873 11.1033 10.9907 11.109 11.7373C11.1089 11.7409 11.1089 11.7444 11.1089 11.7481C11.1089 11.7517 11.1089 11.7553 11.109 11.7589C11.1033 12.5055 10.4963 13.1089 9.74827 13.1089C8.99672 13.1089 8.38746 12.4996 8.38746 11.7481ZM11.8515 12.1369C11.6686 13.1323 10.7965 13.8865 9.74827 13.8865C8.70006 13.8865 7.82795 13.1323 7.64511 12.1369H1.39184C1.17711 12.1369 1.00304 11.9628 1.00304 11.7481C1.00304 11.5334 1.17711 11.3593 1.39184 11.3593H7.64511C7.82795 10.3639 8.70006 9.60966 9.74827 9.60966C10.7965 9.60966 11.6686 10.3639 11.8515 11.3593H14.6112C14.8259 11.3593 15 11.5334 15 11.7481C15 11.9628 14.8259 12.1369 14.6112 12.1369H11.8515Z" fill="black" stroke="black" stroke-width="0.5"/>
</svg>
