<svg width="14" height="14" viewBox="0 0 14 14" fill="none" xmlns="http://www.w3.org/2000/svg">
<g clip-path="url(#clip0_1_333)">
<path fill-rule="evenodd" clip-rule="evenodd" d="M4.18238 2.96708C4.12274 2.90742 4.08923 2.82651 4.08923 2.74215C4.08923 2.65779 4.12274 2.57688 4.18238 2.51722L6.43198 0.267622C6.53665 0.16251 6.66879 0.088974 6.81328 0.055419C6.86563 0.0195637 6.92754 0.000257492 6.99098 2.86102e-06C7.05443 -0.000252724 7.11649 0.0185547 7.16913 0.0539865C7.31605 0.0868263 7.45055 0.160945 7.55679 0.267622L9.80639 2.51722C9.86434 2.57723 9.89641 2.65759 9.89568 2.74101C9.89496 2.82442 9.8615 2.90422 9.80251 2.96321C9.74353 3.02219 9.66373 3.05565 9.58031 3.05638C9.4969 3.0571 9.41653 3.02503 9.35653 2.96708L7.31038 0.920933L7.31038 13.1531L9.3963 11.0674C9.42555 11.0366 9.46067 11.012 9.49959 10.995C9.53851 10.978 9.58043 10.969 9.62289 10.9684C9.66535 10.9679 9.70749 10.9759 9.74683 10.9919C9.78616 11.0079 9.82189 11.0316 9.85191 11.0616C9.88193 11.0916 9.90564 11.1274 9.92163 11.1667C9.93762 11.2061 9.94558 11.2482 9.94503 11.2907C9.94448 11.3331 9.93543 11.375 9.91842 11.414C9.90141 11.4529 9.87679 11.488 9.846 11.5172L7.59671 13.7668C7.51773 13.846 7.42288 13.9077 7.31841 13.9476C7.21393 13.9876 7.10218 14.005 6.99049 13.9988C6.97267 13.9988 6.95501 13.9972 6.93768 13.9941C6.76123 13.9729 6.59707 13.8929 6.47159 13.767L4.22231 11.5172C4.16436 11.4572 4.13229 11.3769 4.13301 11.2934C4.13374 11.21 4.1672 11.1302 4.22618 11.0712C4.28517 11.0123 4.36497 10.9788 4.44838 10.9781C4.5318 10.9773 4.61216 11.0094 4.67217 11.0674L6.67409 13.0695L6.67409 0.925227L4.63224 2.96708C4.57258 3.02672 4.49167 3.06023 4.40731 3.06023C4.32295 3.06023 4.24204 3.02672 4.18238 2.96708Z" fill="white"/>
</g>
<defs>
<clipPath id="clip0_1_333">
<rect width="14" height="14" fill="white" transform="matrix(0 -1 1 0 0 14)"/>
</clipPath>
</defs>
</svg>
