<svg width="20" height="20" viewBox="0 0 20 20" fill="none" xmlns="http://www.w3.org/2000/svg">
<g clip-path="url(#clip0_1_60)">
<path fill-rule="evenodd" clip-rule="evenodd" d="M14.0001 4.46431C14.4061 4.46431 14.7351 4.77259 14.7351 5.15145V14.1883L16.7451 12.3061C16.813 12.2421 16.8939 12.1912 16.9832 12.1566C17.0725 12.1219 17.1683 12.104 17.2651 12.104C17.3618 12.104 17.4576 12.1219 17.5469 12.1566C17.6362 12.1912 17.7171 12.2421 17.7851 12.3061C17.9228 12.4356 18 12.6102 18 12.7922C18 12.9742 17.9228 13.1488 17.7851 13.2783L14.5201 16.3342C14.4527 16.3977 14.3726 16.4482 14.2842 16.4829C14.1958 16.5176 14.1009 16.5357 14.005 16.5363C13.9091 16.5369 13.8139 16.52 13.7251 16.4864C13.6362 16.4528 13.5553 16.4033 13.4871 16.3407L13.4801 16.3342L10.2151 13.2783C10.0773 13.1488 10.0001 12.9742 10.0001 12.7922C10.0001 12.6102 10.0773 12.4356 10.2151 12.3061C10.283 12.2421 10.3639 12.1912 10.4532 12.1566C10.5425 12.1219 10.6383 12.104 10.7351 12.104C10.8318 12.104 10.9276 12.1219 11.0169 12.1566C11.1062 12.1912 11.1871 12.2421 11.2551 12.3061L13.2651 14.1883V5.15145C13.2651 4.77074 13.5951 4.46431 14.0001 4.46431ZM6.00005 16.5357C6.19561 16.535 6.38286 16.4622 6.52067 16.3334C6.65848 16.2045 6.73559 16.0302 6.73505 15.8486V6.81081L8.74505 8.69302C8.81297 8.75703 8.89393 8.80787 8.9832 8.84256C9.07247 8.87726 9.16828 8.89513 9.26505 8.89513C9.36183 8.89513 9.45764 8.87726 9.54691 8.84256C9.63618 8.80787 9.71713 8.75703 9.78505 8.69302C9.92276 8.56354 9.99998 8.38889 9.99998 8.20691C9.99998 8.02494 9.92276 7.85029 9.78505 7.72081L6.52005 4.66581C6.45213 4.6018 6.37118 4.55096 6.28191 4.51627C6.19264 4.48157 6.09683 4.4637 6.00005 4.4637C5.90328 4.4637 5.80747 4.48157 5.7182 4.51627C5.62893 4.55096 5.54798 4.6018 5.48005 4.66581L2.21505 7.72174C2.07734 7.85121 2.00012 8.02586 2.00012 8.20784C2.00012 8.38982 2.07734 8.56447 2.21505 8.69395C2.28298 8.75796 2.36393 8.80879 2.4532 8.84349C2.54247 8.87819 2.63828 8.89606 2.73505 8.89606C2.83183 8.89606 2.92764 8.87819 3.01691 8.84349C3.10618 8.80879 3.18713 8.75796 3.25505 8.69395L5.26505 6.81174V15.8477C5.26505 16.2284 5.59505 16.5357 6.00005 16.5357Z" fill="#0E0E0E"/>
</g>
<defs>
<clipPath id="clip0_1_60">
<rect width="16" height="13" fill="white" transform="translate(2 4)"/>
</clipPath>
</defs>
</svg>
