<svg width="20" height="20" viewBox="0 0 20 20" fill="none" xmlns="http://www.w3.org/2000/svg">
<path fill-rule="evenodd" clip-rule="evenodd" d="M1.04199 10.0001C1.04199 5.05253 5.05278 1.04175 10.0003 1.04175C14.9479 1.04175 18.9587 5.05253 18.9587 10.0001C18.9587 14.9477 14.9479 18.9584 10.0003 18.9584C5.05278 18.9584 1.04199 14.9477 1.04199 10.0001ZM10.0003 2.29175C5.74313 2.29175 2.29199 5.74289 2.29199 10.0001C2.29199 14.2572 5.74313 17.7084 10.0003 17.7084C14.2575 17.7084 17.7087 14.2572 17.7087 10.0001C17.7087 5.74289 14.2575 2.29175 10.0003 2.29175ZM9.76508 5.20841H10.0887L10.1192 5.21141C10.4704 5.24592 10.7973 5.447 10.9738 5.77181L10.9783 5.78014L11.8622 7.46709L13.8493 7.74021L13.8503 7.74035C14.2412 7.79362 14.5893 8.05302 14.7314 8.44041L14.7335 8.44608L14.7355 8.45183C14.8749 8.85625 14.7498 9.29158 14.4402 9.56766L14.4391 9.56875L12.9699 10.8862L13.3171 12.7067C13.3972 13.1292 13.2069 13.5408 12.8647 13.7685C12.5325 13.9949 12.1027 14.0187 11.7488 13.8407L9.94999 12.9518L8.17236 13.8342C7.96808 13.9314 7.73843 13.9652 7.514 13.9311L7.50583 13.9298L7.49769 13.9284C6.94221 13.8288 6.51765 13.3074 6.62123 12.7055L6.62316 12.6942L6.97169 10.8694L5.54793 9.562C5.24272 9.28141 5.1248 8.84425 5.27094 8.44283C5.40923 8.05869 5.75053 7.799 6.1368 7.7414L6.14387 7.74034L8.15393 7.46411L9.02666 5.7689L9.03066 5.76163C9.08324 5.66572 9.15299 5.57404 9.24057 5.49406L9.26474 5.47202L9.29766 5.44778C9.35033 5.40064 9.40658 5.36161 9.46408 5.32981L9.51083 5.30401L9.59558 5.27454L9.76508 5.20841ZM10.0007 6.60775L9.21891 8.12632C9.04774 8.45075 8.72557 8.6565 8.37499 8.6955L6.70273 8.92533L7.90139 10.0261C8.15863 10.266 8.28554 10.6202 8.22376 10.9763L8.22196 10.9867L7.92081 12.5635L9.46774 11.7957C9.56733 11.7449 9.67183 11.7137 9.77449 11.6992L9.81799 11.6931H9.98316L9.99166 11.6933C10.1514 11.6977 10.3125 11.7357 10.4618 11.8104L12.0205 12.5807L11.7171 10.9895C11.6547 10.6332 11.7827 10.2776 12.043 10.0385L12.0483 10.0336L13.2852 8.92441L11.6052 8.6935C11.2682 8.64458 10.9596 8.44066 10.7949 8.12345L10.7938 8.12139L10.0007 6.60775Z" fill="#999999"/>
</svg>
