<svg width="24" height="24" viewBox="0 0 24 24" fill="none" xmlns="http://www.w3.org/2000/svg">
<path d="M20.2969 14.375C20.6836 14.375 21 14.0586 21 13.6719V6.21875C21 4.66836 19.7379 3.40625 18.1875 3.40625H17.2734V2.70312C17.2734 2.31641 16.957 2 16.5703 2C16.1836 2 15.8672 2.31641 15.8672 2.70312V3.40625H12.668V2.70312C12.668 2.31641 12.3516 2 11.9648 2C11.5781 2 11.2617 2.31641 11.2617 2.70312V3.40625H8.09766V2.70312C8.09766 2.31641 7.78125 2 7.39453 2C7.00781 2 6.69141 2.31641 6.69141 2.70312V3.40625H5.8125C4.26211 3.40625 3 4.66836 3 6.21875V17.1875C3 18.7379 4.26211 20 5.8125 20H18.1875C19.7379 20 21 18.7379 21 17.1875C21 16.8008 20.6836 16.4844 20.2969 16.4844C19.9102 16.4844 19.5938 16.8008 19.5938 17.1875C19.5938 17.9645 18.9645 18.5938 18.1875 18.5938H5.8125C5.03555 18.5938 4.40625 17.9645 4.40625 17.1875V6.21875C4.40625 5.4418 5.03555 4.8125 5.8125 4.8125H6.69141V5.51562C6.69141 5.90234 7.00781 6.21875 7.39453 6.21875C7.78125 6.21875 8.09766 5.90234 8.09766 5.51562V4.8125H11.2617V5.51562C11.2617 5.90234 11.5781 6.21875 11.9648 6.21875C12.3516 6.21875 12.668 5.90234 12.668 5.51562V4.8125H15.8672V5.51562C15.8672 5.90234 16.1836 6.21875 16.5703 6.21875C16.957 6.21875 17.2734 5.90234 17.2734 5.51562V4.8125H18.1875C18.9645 4.8125 19.5938 5.4418 19.5938 6.21875V13.6719C19.5938 14.0586 19.9102 14.375 20.2969 14.375Z" fill="#EF3124"/>
<path d="M8.24903 9.27051C8.72473 9.27051 9.11036 8.88488 9.11036 8.40918C9.11036 7.93348 8.72473 7.54785 8.24903 7.54785C7.77333 7.54785 7.3877 7.93348 7.3877 8.40918C7.3877 8.88488 7.77333 9.27051 8.24903 9.27051Z" fill="#EF3124"/>
<path d="M15.7509 9.27051C16.2266 9.27051 16.6122 8.88488 16.6122 8.40918C16.6122 7.93348 16.2266 7.54785 15.7509 7.54785C15.2752 7.54785 14.8896 7.93348 14.8896 8.40918C14.8896 8.88488 15.2752 9.27051 15.7509 9.27051Z" fill="#EF3124"/>
<path d="M8.24903 13.0215C8.72473 13.0215 9.11036 12.6359 9.11036 12.1602C9.11036 11.6845 8.72473 11.2988 8.24903 11.2988C7.77333 11.2988 7.3877 11.6845 7.3877 12.1602C7.3877 12.6359 7.77333 13.0215 8.24903 13.0215Z" fill="#EF3124"/>
<path d="M8.24903 16.7725C8.72473 16.7725 9.11036 16.3868 9.11036 15.9111C9.11036 15.4354 8.72473 15.0498 8.24903 15.0498C7.77333 15.0498 7.3877 15.4354 7.3877 15.9111C7.3877 16.3868 7.77333 16.7725 8.24903 16.7725Z" fill="#EF3124"/>
<path d="M12 9.27051C12.4757 9.27051 12.8613 8.88488 12.8613 8.40918C12.8613 7.93348 12.4757 7.54785 12 7.54785C11.5243 7.54785 11.1387 7.93348 11.1387 8.40918C11.1387 8.88488 11.5243 9.27051 12 9.27051Z" fill="#EF3124"/>
<path d="M12 13.0215C12.4757 13.0215 12.8613 12.6359 12.8613 12.1602C12.8613 11.6845 12.4757 11.2988 12 11.2988C11.5243 11.2988 11.1387 11.6845 11.1387 12.1602C11.1387 12.6359 11.5243 13.0215 12 13.0215Z" fill="#EF3124"/>
<path d="M12 16.7725C12.4757 16.7725 12.8613 16.3868 12.8613 15.9111C12.8613 15.4354 12.4757 15.0498 12 15.0498C11.5243 15.0498 11.1387 15.4354 11.1387 15.9111C11.1387 16.3868 11.5243 16.7725 12 16.7725Z" fill="#EF3124"/>
<path d="M15.7509 13.0215C16.2266 13.0215 16.6122 12.6359 16.6122 12.1602C16.6122 11.6845 16.2266 11.2988 15.7509 11.2988C15.2752 11.2988 14.8896 11.6845 14.8896 12.1602C14.8896 12.6359 15.2752 13.0215 15.7509 13.0215Z" fill="#EF3124"/>
<path d="M15.7509 16.7725C16.2266 16.7725 16.6122 16.3868 16.6122 15.9111C16.6122 15.4354 16.2266 15.0498 15.7509 15.0498C15.2752 15.0498 14.8896 15.4354 14.8896 15.9111C14.8896 16.3868 15.2752 16.7725 15.7509 16.7725Z" fill="#EF3124"/>
</svg>
