<svg width="24" height="24" viewBox="0 0 24 24" fill="none" xmlns="http://www.w3.org/2000/svg">
<path d="M22.2015 7.28331L17.3265 5.06743C17.1787 5.00031 17.0088 5.00031 16.8611 5.06743L15.2561 5.797C15.318 5.96181 15.3196 6.14875 15.2229 6.32556C15.0888 6.57062 14.9165 6.78812 14.7178 6.97956C14.6945 7.01893 14.67 7.05775 14.6454 7.09618C14.6002 7.18712 14.556 7.27843 14.5132 7.37031L17.094 6.19731L21.4065 8.15743V19.9956L17.3266 18.1412C17.1789 18.0741 17.009 18.0741 16.8613 18.1412L12.219 20.2514L7.57644 18.1414C7.50256 18.1079 7.42306 18.091 7.34375 18.091C7.26444 18.091 7.18494 18.1079 7.11106 18.1414L3.03125 19.9958V8.15762L7.34375 6.1975L9.72781 7.28106C9.58156 7.08831 9.43213 6.88468 9.25475 6.67712C9.01363 6.39475 9.05919 6.05593 9.23225 5.82006L7.57644 5.06743C7.42869 5.00031 7.25881 5.00031 7.11106 5.06743L2.23606 7.28331C2.03525 7.37462 1.90625 7.57487 1.90625 7.79537V20.8692C1.90625 21.0604 2.00338 21.2386 2.16425 21.3422C2.32513 21.4457 2.52763 21.4606 2.70144 21.3812L7.34375 19.2711L11.9861 21.3812C12.1338 21.4484 12.3037 21.4484 12.4515 21.3812L17.0938 19.2711L21.7361 21.3812C21.8103 21.415 21.8896 21.4317 21.9688 21.4317C22.0751 21.4317 22.181 21.4015 22.2733 21.3422C22.4341 21.2387 22.5313 21.0604 22.5313 20.8692V7.79537C22.5313 7.57487 22.4023 7.37462 22.2015 7.28331Z" fill="#EF3124"/>
<path d="M2.46919 17.3065C2.45888 17.3065 2.44857 17.3059 2.43807 17.3052C2.232 17.2881 2.07863 17.1081 2.09494 16.902C2.09607 16.8885 2.12288 16.5657 2.25807 16.0948C2.31525 15.8957 2.52338 15.781 2.72194 15.8378C2.92107 15.895 3.036 16.1027 2.979 16.3017C2.86632 16.6945 2.84269 16.96 2.8425 16.9626C2.82582 17.1583 2.66194 17.3065 2.46919 17.3065Z" fill="#EF3124"/>
<path d="M15.969 17.1192C15.4477 17.1192 14.9934 17.0533 14.58 16.9185C14.3831 16.8542 14.2757 16.6425 14.3398 16.4457C14.4041 16.2488 14.6165 16.1415 14.8127 16.2055C15.1498 16.3155 15.528 16.369 15.969 16.3692C16.0046 16.3692 16.0399 16.3684 16.0745 16.3665C16.2812 16.3553 16.4574 16.5156 16.4675 16.7226C16.4779 16.9294 16.3185 17.1055 16.1115 17.1156C16.0648 17.118 16.0172 17.1192 15.969 17.1192ZM17.3929 16.6178C17.2832 16.6178 17.1742 16.57 17.1002 16.4777C16.9704 16.3163 16.9961 16.0802 17.1575 15.9505C17.4375 15.7255 17.6974 15.4103 17.975 14.9586C18.0834 14.7823 18.3142 14.727 18.4909 14.8356C18.6673 14.9442 18.7222 15.1752 18.6139 15.3514C18.2897 15.8785 17.9764 16.2546 17.6272 16.5351C17.5582 16.5906 17.4754 16.6178 17.3929 16.6178ZM13.506 16.198C13.4098 16.198 13.3138 16.1612 13.2405 16.0877C12.8874 15.7337 12.6116 15.322 12.3365 14.8962C12.2242 14.7222 12.2743 14.49 12.4483 14.3777C12.6221 14.2652 12.8544 14.3155 12.9667 14.4895C13.2285 14.8952 13.4698 15.2556 13.7715 15.5582C13.9177 15.7048 13.9174 15.9422 13.7707 16.0885C13.6976 16.1616 13.6018 16.198 13.506 16.198ZM3.18134 15.2734C3.11571 15.2734 3.04934 15.2562 2.98896 15.22C2.81121 15.1135 2.75365 14.8832 2.85996 14.7055C3.12396 14.2648 3.44477 13.8666 3.81321 13.5218C3.96452 13.3804 4.20171 13.3885 4.34327 13.5394C4.48465 13.6907 4.47677 13.9279 4.32565 14.0695C4.00802 14.3667 3.73127 14.7103 3.50327 15.091C3.43315 15.2083 3.30884 15.2734 3.18134 15.2734ZM18.974 14.2819C18.9157 14.2819 18.8567 14.2682 18.8014 14.2395C18.6176 14.1439 18.546 13.9176 18.6414 13.7338C18.8645 13.3047 19.1057 12.8528 19.3834 12.4622C19.5035 12.2933 19.7375 12.2541 19.9063 12.3739C20.075 12.4941 20.1146 12.7281 19.9946 12.8968C19.7447 13.2482 19.518 13.6738 19.307 14.0796C19.2401 14.2082 19.1094 14.2819 18.974 14.2819ZM11.8312 13.9101C11.7264 13.9101 11.6222 13.8664 11.5479 13.7811C11.2442 13.4316 10.9303 13.1833 10.56 12.9996C10.3744 12.9075 10.2986 12.6825 10.3907 12.4971C10.4827 12.3113 10.7075 12.2357 10.8932 12.3278C11.349 12.5539 11.7484 12.8683 12.114 13.2893C12.2499 13.4457 12.2332 13.6825 12.0769 13.8182C12.006 13.8799 11.9184 13.9101 11.8312 13.9101ZM5.2279 13.3568C5.09234 13.3568 4.96146 13.2829 4.89471 13.1541C4.79946 12.9703 4.87127 12.7438 5.05521 12.6486C5.4844 12.4262 5.95802 12.249 6.46296 12.1217C6.66396 12.0718 6.86758 12.193 6.91821 12.3938C6.96884 12.5946 6.84696 12.7984 6.64615 12.849C6.19727 12.9621 5.77821 13.1187 5.40021 13.3144C5.3449 13.3433 5.28602 13.3568 5.2279 13.3568ZM9.37146 12.658C9.35721 12.658 9.34277 12.6572 9.32833 12.6555C9.11796 12.6315 8.89202 12.6192 8.65652 12.6192C8.42552 12.6173 8.20015 12.6268 7.98171 12.6422C7.7734 12.6568 7.59583 12.5008 7.5814 12.2944C7.56696 12.0878 7.72258 11.9085 7.92921 11.8941C8.16508 11.8776 8.40846 11.8656 8.65671 11.8693C8.92052 11.8693 9.17534 11.8832 9.41384 11.9106C9.61952 11.9342 9.76727 12.1202 9.74365 12.3259C9.72171 12.517 9.55952 12.658 9.37146 12.658Z" fill="#EF3124"/>
<path d="M20.7687 12.1058C20.6221 12.1058 20.483 12.0193 20.4228 11.8757C20.3427 11.6846 20.4325 11.4651 20.6236 11.3848C20.8957 11.2706 21.1904 11.2129 21.4996 11.2129C21.7066 11.2129 21.8746 11.3809 21.8746 11.5879C21.8746 11.7949 21.7066 11.9629 21.4996 11.9629C21.2877 11.9629 21.0959 12 20.9137 12.0765C20.8662 12.0964 20.8171 12.1058 20.7687 12.1058Z" fill="#EF3124"/>
<path d="M7.34375 19.0281C7.13675 19.0281 6.96875 18.8601 6.96875 18.6531V5.86914C6.96875 5.66214 7.13675 5.49414 7.34375 5.49414C7.55075 5.49414 7.71875 5.66214 7.71875 5.86914V18.6533C7.71875 18.8603 7.55075 19.0281 7.34375 19.0281Z" fill="#EF3124"/>
<path d="M12.2188 21.0566C12.0115 21.0566 11.8438 20.8886 11.8438 20.6816V10.3691C11.8438 10.1621 12.0115 9.99414 12.2188 9.99414C12.4258 9.99414 12.5938 10.1621 12.5938 10.3691V20.6816C12.5938 20.8886 12.4258 21.0566 12.2188 21.0566Z" fill="#EF3124"/>
<path d="M17.0938 19.0281C16.8865 19.0281 16.7188 18.8601 16.7188 18.6531V5.86914C16.7188 5.66214 16.8865 5.49414 17.0938 5.49414C17.3008 5.49414 17.4688 5.66214 17.4688 5.86914V18.6533C17.4688 18.8603 17.3008 19.0281 17.0938 19.0281Z" fill="#EF3124"/>
<path d="M12.3125 11.1713C12.1434 11.1713 11.983 11.0951 11.8764 10.9639C11.5025 10.5049 8.22461 6.4187 8.22461 4.33202C8.22461 2.07789 10.0584 0.244141 12.3125 0.244141C14.5664 0.244141 16.4004 2.07789 16.4004 4.33202C16.4004 6.4187 13.1225 10.5047 12.7486 10.9639C12.6419 11.0951 12.4816 11.1713 12.3125 11.1713ZM12.3125 1.36933C10.6788 1.36933 9.34961 2.69852 9.34961 4.3322C9.34961 5.47108 11.0195 8.02164 12.3123 9.70183C13.6053 8.02108 15.2752 5.47014 15.2752 4.3322C15.2752 2.69852 13.9462 1.36933 12.3125 1.36933Z" fill="#EF3124"/>
<path d="M12.3123 5.99692C11.3943 5.99692 10.6475 5.25011 10.6475 4.33229C10.6475 3.41429 11.3943 2.66748 12.3123 2.66748C13.2303 2.66748 13.9771 3.41429 13.9771 4.33229C13.9771 5.25011 13.2303 5.99692 12.3123 5.99692ZM12.3123 3.41748C11.8079 3.41748 11.3975 3.82773 11.3975 4.33229C11.3975 4.83667 11.8078 5.24692 12.3123 5.24692C12.8167 5.24692 13.2271 4.83648 13.2271 4.33229C13.2271 3.82773 12.8167 3.41748 12.3123 3.41748Z" fill="#EF3124"/>
</svg>
