<svg width="20" height="20" viewBox="0 0 20 20" fill="none" xmlns="http://www.w3.org/2000/svg">
<path fill-rule="evenodd" clip-rule="evenodd" d="M8.62617 3.85115C8.66384 3.78839 8.73167 3.75 8.80484 3.75H11.1945C11.2677 3.75 11.3355 3.78839 11.3732 3.85115L11.8125 4.58333H8.18687L8.62617 3.85115ZM12.445 3.20803L13.2702 4.58333H15.4163C15.7615 4.58333 16.0413 4.86316 16.0413 5.20833C16.0413 5.55351 15.7615 5.83333 15.4163 5.83333H12.9163H7.08301H4.58301C4.23783 5.83333 3.95801 5.55351 3.95801 5.20833C3.95801 4.86316 4.23783 4.58333 4.58301 4.58333H6.72914L7.55432 3.20803C7.81787 2.76877 8.29257 2.5 8.80484 2.5H11.1945C11.7068 2.5 12.1815 2.76877 12.445 3.20803ZM6.24771 7.24211C6.22033 6.89802 5.91921 6.64127 5.57512 6.66863C5.23102 6.69601 4.97427 6.99713 5.00164 7.34123L5.66977 15.7407C5.73009 16.4988 6.36295 17.0833 7.12352 17.0833H12.8758C13.6364 17.0833 14.2693 16.4988 14.3296 15.7407L14.9977 7.34123C15.0251 6.99713 14.7683 6.69601 14.4243 6.66863C14.0802 6.64127 13.779 6.89802 13.7517 7.24211L13.0835 15.6415C13.0749 15.7498 12.9845 15.8333 12.8758 15.8333H7.12352C7.01487 15.8333 6.92446 15.7498 6.91584 15.6415L6.24771 7.24211ZM8.12467 8.38542C8.12467 8.12654 8.33451 7.91668 8.59342 7.91668C8.85234 7.91668 9.06217 8.12654 9.06217 8.38542V14.1146C9.06217 14.3735 8.85234 14.5833 8.59342 14.5833C8.33451 14.5833 8.12467 14.3735 8.12467 14.1146V8.38542ZM11.3018 7.91667C11.0428 7.91667 10.833 8.12653 10.833 8.38542V14.1146C10.833 14.3735 11.0428 14.5833 11.3018 14.5833C11.5607 14.5833 11.7705 14.3735 11.7705 14.1146V8.38542C11.7705 8.12653 11.5607 7.91667 11.3018 7.91667Z" fill="black"/>
</svg>
