<svg width="24" height="24" viewBox="0 0 24 24" fill="none" xmlns="http://www.w3.org/2000/svg">
<path d="M12 4C7.58873 4 4 7.58873 4 12C4 16.4113 7.58873 20 12 20C16.4113 20 20 16.4113 20 12C20 7.58873 16.4113 4 12 4ZM12 18.2514C8.55291 18.2514 5.74863 15.4471 5.74863 12C5.74863 8.55308 8.55291 5.74863 12 5.74863C15.4471 5.74863 18.2514 8.55308 18.2514 12C18.2514 15.4471 15.4471 18.2514 12 18.2514Z" fill="#EF3124"/>
<path d="M12.6923 12.0097V8.65677C12.6923 8.28239 12.3889 7.979 12.0147 7.979C11.6403 7.979 11.3369 8.28239 11.3369 8.65677V12.2263C11.3369 12.2369 11.3396 12.2469 11.3401 12.2576C11.3312 12.4419 11.3947 12.629 11.5354 12.7698L14.0596 15.2938C14.3243 15.5585 14.7534 15.5585 15.018 15.2938C15.2826 15.029 15.2827 14.5999 15.018 14.3353L12.6923 12.0097Z" fill="#EF3124"/>
</svg>
