<svg width="86" height="14" viewBox="0 0 86 14" fill="none" xmlns="http://www.w3.org/2000/svg">
<g clip-path="url(#clip0_1_1263)">
<path d="M0 13.6431H1.96744V2.13239H9.16538V13.6521H11.0968V0.3479H0V13.6431Z" fill="#FF0001"/>
<path d="M37.1894 1.28361C37.0648 1.00523 36.8623 0.768847 36.6063 0.602988C36.3503 0.437129 36.0518 0.348877 35.7468 0.348877C35.4418 0.348877 35.1433 0.437129 34.8873 0.602988C34.6314 0.768847 34.4289 1.00523 34.3042 1.28361L29.6076 11.8406H27.967V13.6551H43.5386V11.8406H41.8981L37.1894 1.28361ZM31.74 11.8406L35.7528 2.62723L39.7627 11.8406H31.74Z" fill="#FF0001"/>
<path d="M64.8505 0.347928C64.5465 0.348071 64.2493 0.437744 63.9959 0.605755C63.7426 0.773766 63.5443 1.01267 63.4259 1.29266L58.2584 13.5322L58.2074 13.6551H60.3428L64.8415 2.74124L69.3402 13.6011L69.3612 13.6551H71.4996L66.2811 1.29266C66.1629 1.01126 65.9639 0.771266 65.7092 0.603083C65.4546 0.4349 65.1557 0.346098 64.8505 0.347928Z" fill="#FF0001"/>
<path d="M83.0883 0.3479L75.3895 10.7969V0.3479H73.452V13.6551H75.3445L83.0763 3.1611V13.6551H85.0137V0.3479H83.0883Z" fill="#FF0001"/>
<path d="M55.4092 1.69751C54.1371 0.602235 52.5142 -0.000117015 50.8355 3.27683e-08C49.4508 -0.000133924 48.0971 0.410443 46.9457 1.17979C45.7944 1.94914 44.8971 3.04269 44.3673 4.3221C43.8376 5.60152 43.6992 7.00931 43.9697 8.36738C44.2402 9.72545 44.9074 10.9728 45.8869 11.9516C46.7003 12.762 47.7007 13.3598 48.7997 13.6922C49.8988 14.0246 51.0628 14.0815 52.189 13.8577C53.3152 13.6339 54.369 13.1365 55.2575 12.4091C56.146 11.6818 56.8419 10.747 57.2837 9.68723L57.3347 9.56727H55.2353L55.2083 9.60925C54.7583 10.3664 54.1191 10.9934 53.3535 11.4288C52.5879 11.8641 51.7222 12.0929 50.8415 12.0925C49.6187 12.0911 48.4371 11.6503 47.5121 10.8503C46.5872 10.0504 45.9806 8.94467 45.803 7.73479H57.7995V7.65681C57.8205 7.44387 57.8325 7.21894 57.8325 7C57.832 6.65664 57.806 6.31379 57.7545 5.97429C57.5105 4.31371 56.6782 2.79599 55.4092 1.69751ZM47.6114 3.06812C48.2846 2.51905 49.0869 2.15108 49.9422 1.99913C50.7976 1.84718 51.6775 1.9163 52.4986 2.19991C53.3197 2.48353 54.0547 2.97224 54.6339 3.61968C55.2131 4.26712 55.6173 5.05182 55.8081 5.89931H45.8629C46.1111 4.78741 46.7246 3.79067 47.6054 3.06812H47.6114Z" fill="#FF0001"/>
<path d="M20.6941 0C19.3096 0 17.9562 0.410543 16.8051 1.17971C15.654 1.94888 14.7568 3.04213 14.2269 4.32122C13.6971 5.6003 13.5585 7.00777 13.8286 8.36563C14.0987 9.7235 14.7654 10.9708 15.7443 11.9497C16.7233 12.9287 17.9706 13.5954 19.3285 13.8655C20.6863 14.1356 22.0938 13.997 23.3729 13.4672C24.652 12.9373 25.7452 12.0401 26.5144 10.889C27.2836 9.73785 27.6941 8.38447 27.6941 7C27.6917 5.14422 26.9535 3.36512 25.6412 2.05288C24.329 0.740643 22.5499 0.00238074 20.6941 0ZM25.7926 7C25.7926 8.0084 25.4936 8.99415 24.9334 9.8326C24.3731 10.6711 23.5769 11.3245 22.6452 11.7104C21.7136 12.0963 20.6884 12.1973 19.6994 12.0006C18.7104 11.8038 17.8019 11.3183 17.0889 10.6052C16.3758 9.89217 15.8902 8.9837 15.6935 7.99468C15.4968 7.00566 15.5978 5.98051 15.9837 5.04887C16.3696 4.11724 17.023 3.32095 17.8615 2.76072C18.6999 2.20048 19.6857 1.90146 20.6941 1.90146C22.0463 1.90146 23.3431 2.43862 24.2993 3.39479C25.2555 4.35095 25.7926 5.64778 25.7926 7Z" fill="#FF0001"/>
<path d="M27.6221 5.99824C27.4023 4.50246 26.7056 3.11754 25.6358 2.04931C24.5659 0.981076 23.18 0.286545 21.6838 0.0689344C21.5496 0.0514672 21.4132 0.0630472 21.2838 0.10289C21.1545 0.142733 21.0352 0.209909 20.9341 0.299868C20.7964 0.419636 20.6958 0.576286 20.6442 0.751337C20.5927 0.926388 20.5922 1.11254 20.643 1.28783C20.6937 1.46312 20.7936 1.62023 20.9307 1.74064C21.0678 1.86105 21.2365 1.93973 21.4169 1.96739C22.5047 2.12461 23.5126 2.62914 24.2903 3.40578C25.068 4.18242 25.574 5.18959 25.7327 6.27716C25.7608 6.4573 25.8398 6.62565 25.9604 6.7624C26.081 6.89914 26.2382 6.99858 26.4134 7.049C26.5886 7.09942 26.7746 7.09872 26.9494 7.047C27.1242 6.99527 27.2806 6.89466 27.4002 6.75702C27.4902 6.6543 27.5566 6.53319 27.595 6.40213C27.6333 6.27108 27.6426 6.13325 27.6221 5.99824Z" fill="black"/>
</g>
<defs>
<clipPath id="clip0_1_1263">
<rect width="85.0137" height="14" fill="white"/>
</clipPath>
</defs>
</svg>
