<svg width="32" height="32" viewBox="0 0 32 32" fill="none" xmlns="http://www.w3.org/2000/svg">
<g clip-path="url(#clip0_1_639)">
<path d="M19.2 0.399902H12.8C5.95169 0.399902 0.400024 5.95157 0.400024 12.7999V19.1999C0.400024 26.0482 5.95169 31.5999 12.8 31.5999H19.2C26.0484 31.5999 31.6 26.0482 31.6 19.1999V12.7999C31.6 5.95157 26.0484 0.399902 19.2 0.399902Z" fill="white" stroke="black"/>
<path d="M13.2 18.0001L5.98924 15.3103C5.57492 15.1558 5.57228 14.5707 5.9852 14.4124L23.3098 7.77133C23.9246 7.53564 24.545 8.10224 24.366 8.73592L20.0102 24.1486C19.8357 24.7661 19.0418 24.9371 18.6284 24.4463L13.2 18.0001ZM13.2 18.0001L18 14.0001" stroke="black" stroke-linejoin="round"/>
</g>
<defs>
<clipPath id="clip0_1_639">
<rect width="32" height="32" fill="white"/>
</clipPath>
</defs>
</svg>
