<svg width="20" height="20" viewBox="0 0 20 20" fill="none" xmlns="http://www.w3.org/2000/svg">
<path d="M3 19C3 17.2824 3.68481 15.6352 4.9038 14.4206C6.12278 13.2062 7.77608 12.5238 9.49995 12.5238C11.2239 12.5238 12.8772 13.2062 14.0961 14.4206C15.3151 15.6352 16 17.2824 16 19H14.3749C14.3749 17.7118 13.8614 16.4764 12.9471 15.5655C12.0329 14.6546 10.7929 14.1429 9.49995 14.1429C8.20705 14.1429 6.96708 14.6546 6.05284 15.5655C5.13861 16.4764 4.62499 17.7118 4.62499 19H3ZM9.49995 11.7143C6.80655 11.7143 4.62499 9.54074 4.62499 6.85715C4.62499 4.17358 6.80655 2 9.49995 2C12.1934 2 14.3749 4.17358 14.3749 6.85715C14.3749 9.54074 12.1934 11.7143 9.49995 11.7143ZM9.49995 10.0953C11.2956 10.0953 12.75 8.6462 12.75 6.85715C12.75 5.0681 11.2956 3.61905 9.49995 3.61905C7.70436 3.61905 6.24998 5.0681 6.24998 6.85715C6.24998 8.6462 7.70436 10.0953 9.49995 10.0953Z" fill="#0E0E0E"/>
</svg>
