<svg width="20" height="20" viewBox="0 0 20 20" fill="none" xmlns="http://www.w3.org/2000/svg">
<path fill-rule="evenodd" clip-rule="evenodd" d="M4.06916 3.4339C2.52592 4.14297 1.39535 5.82952 1.39535 7.84067C1.39535 9.89534 2.23183 11.479 3.43096 12.8363C4.41928 13.955 5.61566 14.882 6.78243 15.7862C7.05956 16.001 7.33501 16.2144 7.6056 16.4288C8.09494 16.8166 8.53144 17.1569 8.95218 17.404C9.37314 17.6513 9.71198 17.7641 9.99998 17.7641C10.288 17.7641 10.6269 17.6513 11.0478 17.404C11.4685 17.1569 11.905 16.8166 12.3943 16.4288C12.665 16.2144 12.9405 16.001 13.2175 15.7862C14.3844 14.882 15.5807 13.955 16.569 12.8363C17.7682 11.479 18.6046 9.89534 18.6046 7.84067C18.6046 5.82952 17.4741 4.14297 15.9307 3.4339C14.4315 2.74505 12.417 2.92747 10.5026 4.92675C10.3711 5.0641 10.1896 5.14171 9.99998 5.14171C9.81032 5.14171 9.62884 5.0641 9.49731 4.92675C7.58293 2.92747 5.56843 2.74505 4.06916 3.4339ZM9.99998 3.46628C7.84924 1.53208 5.44088 1.2615 3.48907 2.15829C1.42765 3.10545 0 5.30478 0 7.84067C0 10.3331 1.03302 12.2344 2.38764 13.7676C3.47244 14.9954 4.8002 16.0231 5.97285 16.9307C6.23867 17.1365 6.49653 17.336 6.74177 17.5303C7.21827 17.9079 7.72979 18.3105 8.24819 18.615C8.76636 18.9193 9.35775 19.1667 9.99998 19.1667C10.6422 19.1667 11.2336 18.9193 11.7517 18.615C12.2702 18.3105 12.7817 17.9079 13.2582 17.5303C13.5035 17.336 13.7613 17.1365 14.0271 16.9307C15.1997 16.0231 16.5275 14.9954 17.6123 13.7676C18.967 12.2344 20 10.3331 20 7.84067C20 5.30478 18.5723 3.10545 16.5109 2.15829C14.5591 1.2615 12.1507 1.53208 9.99998 3.46628Z" fill="#0E0E0E"/>
</svg>
