<svg width="20" height="20" viewBox="0 0 20 20" fill="none" xmlns="http://www.w3.org/2000/svg">
<path d="M17.8147 4.51852C17.3393 4.04315 15.9913 2 15.2962 2H5.22211C4.527 2 3.24319 3.97893 2.7036 4.51852C2.00848 4.51852 1.44434 5.08267 1.44434 5.77778L2.7036 17.7407C2.7036 18.4359 3.26774 19 3.96285 19H16.5554C17.2506 19 17.8147 18.4359 17.8147 17.7407L19.074 5.77778C19.074 5.08267 18.5098 4.51852 17.8147 4.51852ZM5.95689 3.25926H14.5614C15.1123 3.25926 16.1789 4.16278 16.5554 4.51852H3.96285C4.391 4.11304 5.40597 3.25926 5.95689 3.25926ZM16.5554 17.7407H3.96285L2.7036 5.77778H17.8147L16.5554 17.7407ZM10.2592 13.963C12.3445 13.963 14.0369 12.2705 14.0369 10.1852V8.92593H12.7777V10.1852C12.7777 11.576 11.65 12.7037 10.2592 12.7037C8.8683 12.7037 7.74063 11.576 7.74063 10.1852V8.92593H6.48137V10.1852C6.48137 12.2705 8.17319 13.963 10.2592 13.963Z" fill="#0E0E0E"/>
</svg>
