<svg width="20" height="20" viewBox="0 0 20 20" fill="none" xmlns="http://www.w3.org/2000/svg">
<path fill-rule="evenodd" clip-rule="evenodd" d="M1 10.0259C1 5.5933 4.59331 2 9.02588 2C13.4585 2 17.0517 5.59331 17.0517 10.0259C17.0517 14.4585 13.4585 18.0518 9.02588 18.0518C4.59331 18.0518 1 14.4585 1 10.0259ZM9.02588 3.40605C5.36984 3.40605 2.40605 6.36984 2.40605 10.0259C2.40605 13.6819 5.36984 16.6457 9.02588 16.6457C12.6819 16.6457 15.6457 13.6819 15.6457 10.0259C15.6457 6.36984 12.6819 3.40605 9.02588 3.40605Z" fill="#0E0E0E"/>
<path fill-rule="evenodd" clip-rule="evenodd" d="M14.3793 15.379C14.6538 15.1045 15.0989 15.1045 15.3735 15.379L18.0081 18.0136C18.2826 18.2881 18.2826 18.7333 18.0081 19.0078C17.7335 19.2824 17.2884 19.2824 17.0138 19.0078L14.3793 16.3732C14.1047 16.0987 14.1047 15.6536 14.3793 15.379Z" fill="#0E0E0E"/>
</svg>
