<svg width="18" height="18" viewBox="0 0 18 18" fill="none" xmlns="http://www.w3.org/2000/svg">
<path d="M8.99987 1C7.37017 1.00186 5.80774 1.65008 4.65537 2.80246C3.50299 3.95484 2.85477 5.51726 2.85291 7.14697C2.85291 11.3447 8.29415 16.3564 8.52621 16.5677L8.99987 17L9.47382 16.5677C9.70559 16.3564 15.1468 11.3444 15.1468 7.14697C15.145 5.51726 14.4968 3.95484 13.3444 2.80246C12.192 1.65008 10.6296 1.00186 8.99987 1ZM8.99987 15.0707C7.71417 13.7895 4.25928 10.0739 4.25928 7.14697C4.25446 6.52137 4.37351 5.901 4.60958 5.32164C4.84565 4.74227 5.19407 4.21536 5.63474 3.77128C6.07541 3.3272 6.59962 2.97474 7.17715 2.73421C7.75468 2.49369 8.37411 2.36986 8.99973 2.36986C9.62535 2.36986 10.2448 2.49369 10.8223 2.73421C11.3998 2.97474 11.9241 3.3272 12.3647 3.77128C12.8054 4.21536 13.1538 4.74227 13.3899 5.32164C13.6259 5.901 13.745 6.52137 13.7402 7.14697C13.7402 10.0739 10.2856 13.7895 8.99987 15.0705V15.0707Z" fill="#0E0E0E"/>
<path d="M9.00009 3.7666C8.42455 3.7666 7.86193 3.93727 7.38338 4.25702C6.90482 4.57677 6.53183 5.03124 6.31157 5.56297C6.09131 6.09469 6.03366 6.6798 6.14592 7.24429C6.25819 7.80877 6.53531 8.3273 6.94227 8.73429C7.34922 9.14128 7.86771 9.41846 8.43219 9.53078C8.99667 9.64309 9.58178 9.58551 10.1135 9.36529C10.6453 9.14508 11.0998 8.77213 11.4196 8.29361C11.7394 7.81509 11.9101 7.25249 11.9102 6.67695C11.9094 5.90535 11.6026 5.16557 11.057 4.61994C10.5114 4.07432 9.77168 3.76742 9.00009 3.7666ZM9.00009 8.18064C8.70269 8.18064 8.41197 8.09245 8.16468 7.92722C7.9174 7.76199 7.72467 7.52715 7.61086 7.25238C7.49705 6.97762 7.46727 6.67528 7.52529 6.38359C7.58331 6.0919 7.72652 5.82397 7.93682 5.61367C8.14711 5.40338 8.41505 5.26017 8.70673 5.20215C8.99842 5.14413 9.30077 5.1739 9.57553 5.28772C9.85029 5.40153 10.0851 5.59426 10.2504 5.84154C10.4156 6.08882 10.5038 6.37954 10.5038 6.67695C10.5033 7.07561 10.3448 7.45782 10.0629 7.73972C9.78097 8.02162 9.39876 8.18019 9.00009 8.18064Z" fill="#0E0E0E"/>
</svg>
