<svg width="134" height="17" viewBox="0 0 134 17" fill="none" xmlns="http://www.w3.org/2000/svg">
<path d="M0.307617 16L5.89562 2.184L5.25762 0.599999H7.39162L13.6176 16H11.5056L9.72362 11.644H2.90362L1.12162 16H0.307617ZM3.18962 10.896H9.43762L6.31362 3.196L3.18962 10.896ZM15.2779 16V0.599999H17.4119V5.506H25.5079V0.599999H26.2559V16H25.5079V6.254H17.4119V16H15.2779ZM34.779 0.599999H41.819V16H39.685V9.708H34.779C34.5737 9.708 34.3684 9.70067 34.163 9.686C33.9577 9.67133 33.7597 9.64933 33.569 9.62L30.577 16H29.763L32.821 9.444C31.9557 9.19467 31.2517 8.806 30.709 8.278C30.1664 7.75 29.785 7.156 29.565 6.496C29.345 5.836 29.2864 5.16133 29.389 4.472C29.5064 3.768 29.7777 3.13 30.203 2.558C30.643 1.986 31.2444 1.51667 32.007 1.15C32.7697 0.783333 33.6937 0.599999 34.779 0.599999ZM34.867 8.96H39.685V1.37H34.867C34.1044 1.37 33.4664 1.56067 32.953 1.942C32.4544 2.30867 32.0804 2.778 31.831 3.35C31.5817 3.90733 31.457 4.516 31.457 5.176C31.457 5.82133 31.5817 6.43 31.831 7.002C32.0804 7.55933 32.4544 8.02867 32.953 8.41C33.4664 8.77667 34.1044 8.96 34.867 8.96ZM47.1033 15.252H52.0313C52.794 15.252 53.4247 15.076 53.9233 14.724C54.4367 14.372 54.818 13.932 55.0673 13.404C55.3313 12.8613 55.4633 12.282 55.4633 11.666C55.4633 11.05 55.3313 10.478 55.0673 9.95C54.818 9.40733 54.4367 8.96 53.9233 8.608C53.4247 8.256 52.794 8.08 52.0313 8.08H47.1033V15.252ZM47.1033 7.332H51.2613C52.024 7.332 52.992 7.42 54.1653 7.596C55.0307 7.83067 55.7273 8.20467 56.2553 8.718C56.798 9.21667 57.172 9.78133 57.3773 10.412C57.5827 11.028 57.6267 11.666 57.5093 12.326C57.392 12.986 57.1133 13.5873 56.6733 14.13C56.2333 14.6727 55.632 15.12 54.8693 15.472C54.1213 15.824 53.2047 16 52.1193 16H44.9693V0.599999H55.9473V1.37H47.1033V7.332ZM68.0578 0.226C69.4512 0.226 70.6685 0.460666 71.7098 0.929999C72.7512 1.38467 73.6165 1.99333 74.3058 2.756C74.9952 3.504 75.5158 4.362 75.8678 5.33C76.2198 6.298 76.3958 7.288 76.3958 8.3C76.3958 9.312 76.2198 10.302 75.8678 11.27C75.5158 12.238 74.9952 13.1033 74.3058 13.866C73.6165 14.614 72.7512 15.2227 71.7098 15.692C70.6685 16.1467 69.4512 16.374 68.0578 16.374C66.6645 16.374 65.4398 16.1467 64.3838 15.692C63.3425 15.2227 62.4698 14.614 61.7658 13.866C61.0765 13.1033 60.5558 12.238 60.2038 11.27C59.8665 10.302 59.6978 9.312 59.6978 8.3C59.6978 7.288 59.8665 6.298 60.2038 5.33C60.5558 4.362 61.0765 3.504 61.7658 2.756C62.4698 1.99333 63.3425 1.38467 64.3838 0.929999C65.4398 0.460666 66.6645 0.226 68.0578 0.226ZM68.0578 0.863999C67.0312 0.863999 66.1292 1.07667 65.3518 1.502C64.5892 1.92733 63.9512 2.492 63.4378 3.196C62.9245 3.88533 62.5358 4.67733 62.2718 5.572C62.0225 6.46667 61.8978 7.376 61.8978 8.3C61.8978 9.224 62.0225 10.1333 62.2718 11.028C62.5358 11.9227 62.9245 12.722 63.4378 13.426C63.9512 14.1153 64.5892 14.6727 65.3518 15.098C66.1292 15.5233 67.0312 15.736 68.0578 15.736C69.0845 15.736 69.9792 15.5233 70.7418 15.098C71.5045 14.6727 72.1425 14.1153 72.6558 13.426C73.1692 12.722 73.5505 11.9227 73.7998 11.028C74.0638 10.1333 74.1958 9.224 74.1958 8.3C74.1958 7.376 74.0638 6.46667 73.7998 5.572C73.5505 4.67733 73.1692 3.88533 72.6558 3.196C72.1425 2.492 71.5045 1.92733 70.7418 1.502C69.9792 1.07667 69.0845 0.863999 68.0578 0.863999ZM77.8929 1.37V0.599999H91.4669V1.37H85.7469V16H83.6349V1.37H77.8929ZM91.6807 16L97.2687 2.184L96.6307 0.599999H98.7647L104.991 16H102.879L101.097 11.644H94.2767L92.4947 16H91.6807ZM94.5627 10.896H100.811L97.6867 3.196L94.5627 10.896ZM106.651 16V0.599999H108.785V5.506H116.881V0.599999H117.629V16H116.881V6.254H108.785V16H106.651ZM126.152 0.599999H133.192V16H131.058V9.708H126.152C125.947 9.708 125.741 9.70067 125.536 9.686C125.331 9.67133 125.133 9.64933 124.942 9.62L121.95 16H121.136L124.194 9.444C123.329 9.19467 122.625 8.806 122.082 8.278C121.539 7.75 121.158 7.156 120.938 6.496C120.718 5.836 120.659 5.16133 120.762 4.472C120.879 3.768 121.151 3.13 121.576 2.558C122.016 1.986 122.617 1.51667 123.38 1.15C124.143 0.783333 125.067 0.599999 126.152 0.599999ZM126.24 8.96H131.058V1.37H126.24C125.477 1.37 124.839 1.56067 124.326 1.942C123.827 2.30867 123.453 2.778 123.204 3.35C122.955 3.90733 122.83 4.516 122.83 5.176C122.83 5.82133 122.955 6.43 123.204 7.002C123.453 7.55933 123.827 8.02867 124.326 8.41C124.839 8.77667 125.477 8.96 126.24 8.96Z" fill="#0C0C0C"/>
</svg>
