<svg width="20" height="20" viewBox="0 0 20 20" fill="none" xmlns="http://www.w3.org/2000/svg">
<path fill-rule="evenodd" clip-rule="evenodd" d="M1.78589 9.20643C1.78589 5.10818 5.10818 1.78589 9.20644 1.78589C13.3047 1.78589 16.627 5.10818 16.627 9.20643C16.627 13.3047 13.3047 16.627 9.20644 16.627C5.10818 16.627 1.78589 13.3047 1.78589 9.20643ZM9.20644 3.08589C5.82615 3.08589 3.08589 5.82615 3.08589 9.20643C3.08589 12.5868 5.82615 15.327 9.20644 15.327C12.5867 15.327 15.327 12.5868 15.327 9.20643C15.327 5.82615 12.5867 3.08589 9.20644 3.08589Z" fill="white"/>
<path fill-rule="evenodd" clip-rule="evenodd" d="M14.1558 14.1557C14.4096 13.9019 14.8212 13.9019 15.075 14.1557L17.5109 16.5916C17.7647 16.8454 17.7647 17.257 17.5109 17.5108C17.257 17.7647 16.8455 17.7647 16.5916 17.5108L14.1558 15.075C13.9019 14.8211 13.9019 14.4096 14.1558 14.1557Z" fill="white"/>
</svg>
