<svg width="18" height="18" viewBox="0 0 18 18" fill="none" xmlns="http://www.w3.org/2000/svg">
<g clip-path="url(#clip0_1_41)">
<path fill-rule="evenodd" clip-rule="evenodd" d="M1.15725 3.0075C1.30726 2.61875 1.5715 2.28455 1.91517 2.04893C2.25883 1.8133 2.66581 1.68729 3.0825 1.6875H14.9175C15.7702 1.6875 16.5352 2.2125 16.842 3.0075L17.775 5.4225C17.7998 5.487 17.8125 5.556 17.8125 5.625V9.84375C17.8125 9.99293 17.7532 10.136 17.6477 10.2415C17.5423 10.347 17.3992 10.4062 17.25 10.4062H16.5098V14.25C16.5098 14.797 16.2925 15.3216 15.9057 15.7084C15.5189 16.0952 14.9943 16.3125 14.4473 16.3125H7.263C7.11382 16.3125 6.97074 16.2532 6.86525 16.1477C6.75976 16.0423 6.7005 15.8992 6.7005 15.75V10.4062H2.61525V15.75C2.61525 15.8992 2.55599 16.0423 2.4505 16.1477C2.34501 16.2532 2.20193 16.3125 2.05275 16.3125C1.90357 16.3125 1.76049 16.2532 1.655 16.1477C1.54951 16.0423 1.49025 15.8992 1.49025 15.75V10.4062H0.75C0.600816 10.4062 0.457742 10.347 0.352253 10.2415C0.246763 10.136 0.1875 9.99293 0.1875 9.84375V5.625C0.187432 5.55577 0.200145 5.48712 0.225 5.4225L1.15725 3.0075ZM3.08175 2.8125C2.694 2.8125 2.34675 3.051 2.20725 3.4125L1.3125 5.73V9.28125H4.095V7.3125C4.095 7.16332 4.15426 7.02024 4.25975 6.91475C4.36524 6.80926 4.50832 6.75 4.6575 6.75C4.80668 6.75 4.94976 6.80926 5.05525 6.91475C5.16074 7.02024 5.22 7.16332 5.22 7.3125V9.28125H8.4375V7.3125C8.4375 7.16332 8.49676 7.02024 8.60225 6.91475C8.70774 6.80926 8.85082 6.75 9 6.75C9.14918 6.75 9.29226 6.80926 9.39775 6.91475C9.50324 7.02024 9.5625 7.16332 9.5625 7.3125V9.28125H12.78V7.3125C12.78 7.16332 12.8393 7.02024 12.9448 6.91475C13.0502 6.80926 13.1933 6.75 13.3425 6.75C13.4917 6.75 13.6348 6.80926 13.7402 6.91475C13.8457 7.02024 13.905 7.16332 13.905 7.3125V9.28125H16.6875V5.73L15.7927 3.4125C15.7246 3.23589 15.6046 3.08405 15.4485 2.97696C15.2924 2.86986 15.1075 2.81253 14.9183 2.8125H3.08175ZM7.8255 10.4062V15.1875H14.448C14.9655 15.1875 15.3855 14.7675 15.3855 14.25V10.4062H7.8255Z" fill="#0E0E0E"/>
</g>
<defs>
<clipPath id="clip0_1_41">
<rect width="18" height="18" fill="white"/>
</clipPath>
</defs>
</svg>
